<svg width="20" height="25" viewBox="0 0 20 25" fill="none" xmlns="http://www.w3.org/2000/svg">
<path d="M17.6 13.7H19.2C19.3 13.2 19.3 12.7 19.3 12.2C19.3 10.6 18.9 9.2 18.3 7.8H16.5C16.8 8.3 17.1 8.9 17.3 9.6H13.3C11.9 9.6 10.8 8.5 10.8 7.1V4.2C12.3 4.4 13.7 5 14.8 5.9H17.1C15.5 4.1 13.3 2.8 10.8 2.6V0H8.6V2.6C6.1 2.8 3.9 4.1 2.3 5.9H4.6C5.7 5 7.1 4.4 8.6 4.2V7.1C8.6 8.5 7.5 9.6 6.1 9.6H2C2.3 9 2.5 8.4 2.9 7.8H1C0.8 8.4 0.5 9 0.4 9.6V9.8C0.2 10.4 0.1 11 0 11.6V11.7C0 11.8 0 12 0 12.1C0 12.6 0.1 13.1 0.1 13.6H1.7C1.6 13.1 1.6 12.6 1.6 12.1C1.6 12 1.6 11.8 1.6 11.7H6C7.5 11.7 8.7 12.9 8.7 14.4V20.2C5.9 19.8 3.6 18.1 2.5 15.6H0.6C1.9 18.9 4.9 21.4 8.6 21.8V24.4H10.8V21.8C14.5 21.4 17.5 18.9 18.8 15.6H17C15.9 18 13.5 19.8 10.8 20.2V14.4C10.8 12.9 12 11.7 13.5 11.7H17.8C17.8 11.8 17.8 12 17.8 12.1C17.8 12.7 17.7 13.2 17.6 13.7Z" fill="#879CE6"/>
</svg>
