<svg width="40" height="40" viewBox="0 0 40 40" fill="none" xmlns="http://www.w3.org/2000/svg">
<path fill-rule="evenodd" clip-rule="evenodd" d="M20 40C31.0457 40 40 31.0457 40 20C40 8.9543 31.0457 0 20 0C8.9543 0 0 8.9543 0 20C0 31.0457 8.9543 40 20 40ZM9.46747 9.71481C10.1775 9.00477 11.3287 9.00477 12.0388 9.71481L19.8763 17.5524L27.7139 9.71481C28.4239 9.00477 29.5751 9.00477 30.2852 9.71481C30.9952 10.4249 30.9952 11.5761 30.2852 12.2861L22.4476 20.1237L30.0378 27.7139C30.7479 28.4239 30.7479 29.5751 30.0378 30.2852C29.3278 30.9952 28.1766 30.9952 27.4666 30.2852L19.8763 22.695L12.2861 30.2852C11.576 30.9952 10.4248 30.9952 9.71479 30.2852C9.00475 29.5751 9.00475 28.4239 9.71479 27.7139L17.305 20.1237L9.46747 12.2861C8.75743 11.5761 8.75743 10.4249 9.46747 9.71481Z" fill="#879CE6"/>
</svg>
