<svg width="27" height="27" viewBox="0 0 27 27" fill="CurrentColor" xmlns="http://www.w3.org/2000/svg">
<path d="M13.5024 14.5377C13.9391 14.5377 14.3485 14.3557 14.6305 14.0282L19.2975 8.73351C19.2156 8.71532 19.1247 8.70622 19.0337 8.70622H7.97119C7.88022 8.70622 7.78925 8.71532 7.70737 8.73351L12.3744 14.0282C12.6564 14.3466 13.0749 14.5377 13.5024 14.5377Z" fill="CurrentColor"/>
<path d="M15.4402 14.7379C14.9489 15.2928 14.2484 15.6112 13.5024 15.6112C12.7656 15.6112 12.0559 15.2928 11.5647 14.7379L6.88859 9.42496C6.83401 9.56142 6.79762 9.71608 6.79762 9.87073V17.6036C6.79762 18.2495 7.32527 18.7771 7.97119 18.7771H19.0337C19.6796 18.7771 20.2073 18.2495 20.2073 17.6036V9.87073C20.2073 9.71608 20.18 9.56142 20.1163 9.42496L15.4402 14.7379Z" fill="CurrentColor"/>
<path d="M26.8029 6.95956C26.8029 3.12953 23.6734 0 19.8434 0H7.16152C3.33149 0 0.201965 3.12953 0.201965 6.95956V19.6414C0.201965 23.4715 3.33149 26.601 7.16152 26.601H19.8434C23.6734 26.601 26.8029 23.4715 26.8029 19.6414V6.95956ZM21.2808 17.5945C21.2808 18.8317 20.271 19.8416 19.0337 19.8416H7.97119C6.73394 19.8416 5.72412 18.8317 5.72412 17.5945V9.87075C5.72412 8.63349 6.73394 7.62367 7.97119 7.62367H19.0337C20.271 7.62367 21.2808 8.63349 21.2808 9.87075V17.5945Z" fill="CurrentColor"/>
</svg>
