<svg width="32" height="31" viewBox="0 0 32 31" fill="#9faee4" xmlns="http://www.w3.org/2000/svg">
<path fill-rule="evenodd" clip-rule="evenodd" d="M0 13.9327V16.7473C0 18.4105 1.35932 19.7858 3.03848 19.7858C5.93303 19.7858 7.11644 21.8328 5.66117 24.3435C4.82959 25.7828 5.32534 27.6539 6.78061 28.4854L9.54723 30.0686C10.8106 30.8203 12.4418 30.3725 13.1934 29.1091L13.3693 28.8053C14.8246 26.2945 17.1914 26.2945 18.6307 28.8053L18.8066 29.1091C19.5582 30.3725 21.1894 30.8203 22.4528 30.0686L25.2194 28.4854C26.6747 27.6539 27.1704 25.7988 26.3388 24.3435C24.8836 21.8328 26.067 19.7858 28.9615 19.7858C30.6407 19.7858 32 18.4105 32 16.7473V13.9327C32 12.2535 30.6247 10.8943 28.9615 10.8943C26.067 10.8943 24.8836 8.84732 26.3388 6.33657C27.1704 4.89729 26.6747 3.02623 25.2194 2.19464L22.4528 0.611436C21.1894 -0.140188 19.5582 0.307587 18.8066 1.57096L18.6307 1.8748C17.1754 4.38555 14.8086 4.38555 13.3693 1.8748L13.1934 1.57096C12.4418 0.307587 10.8106 -0.140188 9.54723 0.611436L6.78061 2.19464C5.32534 3.02623 4.82959 4.89729 5.66117 6.33657C7.11644 8.84732 5.93303 10.8943 3.03848 10.8943C1.35932 10.8943 0 12.2695 0 13.9327ZM21.6015 15.3402C21.6015 18.4383 19.0901 20.9497 15.992 20.9497C12.8939 20.9497 10.3825 18.4383 10.3825 15.3402C10.3825 12.242 12.8939 9.73067 15.992 9.73067C19.0901 9.73067 21.6015 12.242 21.6015 15.3402Z" fill="#9faee4"/>
</svg>
