<svg width="150" height="150" viewBox="0 0 150 150" fill="none" xmlns="http://www.w3.org/2000/svg">
<path d="M116.667 74.9988C116.667 86.505 107.339 95.8325 95.8331 95.8325C84.3275 95.8325 75 86.505 75 74.9988C75 63.4931 84.3275 54.1656 95.8331 54.1656C107.339 54.1656 116.667 63.4931 116.667 74.9988Z" stroke="white" stroke-width="7"/>
<path d="M75 12.5H95.8331C107.339 12.5 116.667 21.8274 116.667 33.3333C116.667 44.8392 107.339 54.1667 95.8331 54.1667H75V12.5Z" stroke="white" stroke-width="7"/>
<path d="M75.0012 12.5H54.1677C42.6617 12.5 33.3344 21.8274 33.3344 33.3333C33.3344 44.8392 42.6617 54.1667 54.1677 54.1667H75.0012V12.5Z" stroke="white" stroke-width="7"/>
<path d="M75.0012 54.1656H54.1677C42.6617 54.1656 33.3344 63.4931 33.3344 74.9988C33.3344 86.505 42.6617 95.8325 54.1677 95.8325H75.0012V54.1656Z" stroke="white" stroke-width="7"/>
<path d="M54.1677 95.8344H75.0012V116.667C75.0012 128.174 65.6737 137.501 54.1677 137.501C42.6617 137.501 33.3344 128.174 33.3344 116.667C33.3344 105.162 42.6617 95.8344 54.1677 95.8344Z" stroke="white" stroke-width="7"/>
</svg>
