<svg width="20" height="20" viewBox="0 0 20 20" fill="none" xmlns="http://www.w3.org/2000/svg">
<path fill-rule="evenodd" clip-rule="evenodd" d="M10.5 10C10.5 8.15908 11.9551 6.66667 13.75 6.66667C15.5449 6.66667 17 8.15908 17 10C17 11.8409 15.5449 13.3333 13.75 13.3333C11.9551 13.3333 10.5 11.8409 10.5 10Z" fill="#1ABCFE"/>
<path fill-rule="evenodd" clip-rule="evenodd" d="M4 16.6667C4 14.8258 5.45507 13.3333 7.25 13.3333H10.5V16.6667C10.5 18.5076 9.04489 20 7.25 20C5.45507 20 4 18.5076 4 16.6667Z" fill="#0ACF83"/>
<path fill-rule="evenodd" clip-rule="evenodd" d="M10.5 0V6.66667H13.75C15.5449 6.66667 17 5.17425 17 3.33333C17 1.49238 15.5449 0 13.75 0H10.5Z" fill="#FF7262"/>
<path fill-rule="evenodd" clip-rule="evenodd" d="M4 3.33333C4 5.17425 5.45507 6.66667 7.25 6.66667H10.5V0H7.25C5.45507 0 4 1.49238 4 3.33333Z" fill="#F24E1E"/>
<path fill-rule="evenodd" clip-rule="evenodd" d="M4 10C4 11.8409 5.45507 13.3333 7.25 13.3333H10.5V6.66667H7.25C5.45507 6.66667 4 8.15908 4 10Z" fill="#A259FF"/>
</svg>
