<svg width="28" height="27" viewBox="0 0 28 27" fill="CurrentColor" xmlns="http://www.w3.org/2000/svg">
<path fill-rule="evenodd" clip-rule="evenodd" d="M20.4443 0C24.2744 0 27.4039 3.12953 27.4039 6.95956V19.6414C27.4039 23.4715 24.2744 26.601 20.4443 26.601H7.76247C3.93244 26.601 0.802917 23.4715 0.802917 19.6414V6.95956C0.802917 3.12953 3.93244 0 7.76247 0H20.4443ZM23 13.2276C23 8.13093 18.9707 4 14 4C9.0302 4 5 8.13093 5 13.2276C5 17.3046 7.5785 20.7642 11.1551 21.9837C11.6042 22.0692 11.7698 21.7838 11.7698 21.5399C11.7698 21.4325 11.7679 21.2038 11.7654 20.908C11.7627 20.5988 11.7595 20.2162 11.7572 19.8221C9.2534 20.3801 8.7251 18.7331 8.7251 18.7331C8.3156 17.6666 7.7261 17.3831 7.7261 17.3831C6.9098 16.8107 7.7873 16.8223 7.7873 16.8223C8.6909 16.8871 9.167 17.7738 9.167 17.7738C9.9698 19.1841 11.273 18.776 11.786 18.5402C11.867 17.9435 12.1001 17.537 12.3575 17.3066C10.3586 17.0735 8.2571 16.2812 8.2571 12.746C8.2571 11.738 8.609 10.9154 9.1841 10.2692C9.0914 10.0361 8.7827 9.09755 9.2714 7.82675C9.2714 7.82675 10.0274 7.5795 11.7473 8.77289C12.4655 8.56859 13.235 8.4658 14 8.4622C14.765 8.4658 15.5354 8.56859 16.2545 8.77289C17.9726 7.5795 18.7268 7.82675 18.7268 7.82675C19.2173 9.09755 18.9086 10.0361 18.815 10.2692C19.3928 10.9154 19.742 11.738 19.742 12.746C19.742 16.2902 17.636 17.0706 15.6317 17.2992C15.9548 17.5854 16.2428 18.1469 16.2428 19.0073C16.2428 19.8325 16.238 20.55 16.2348 21.026C16.2332 21.2622 16.232 21.439 16.232 21.5399C16.232 21.7856 16.394 22.0737 16.8503 21.9828C20.4242 20.7615 23 17.3037 23 13.2276Z" fill="CurrentColor"/>
</svg>
