<svg width="230" height="225" viewBox="0 0 230 225" fill="none" xmlns="http://www.w3.org/2000/svg">
<path d="M230 0.000954578L113.583 30.725C129.136 35.7965 142.843 42.5932 154.671 51.5154C150.15 71.8435 131.941 87.0906 109.805 87.0906C84.2568 87.0906 63.5215 66.8059 63.5215 41.8127C63.5215 29.6725 68.3121 18.529 76.2737 10.3959C58.8162 15.5686 42.6017 24.8553 28.8097 38.3471C15.0176 51.8394 5.28907 67.9332 0.00146322 85.0104C8.33814 77.0882 19.82 72.3054 32.3523 72.3054C45.127 72.3054 56.5616 77.5081 64.9392 85.7032C73.3159 93.8982 78.6352 105.085 78.6352 117.583C78.6352 142.575 57.8998 162.86 32.3513 162.86C19.82 162.86 8.33717 158.077 0 150.154C5.2876 167.235 14.7787 183.555 28.5722 197.048C42.3657 210.542 59.0483 219.828 76.5078 225C68.4101 216.845 63.5205 205.612 63.5205 193.352C63.5205 168.359 84.2554 148.074 109.804 148.074C122.579 148.074 134.013 153.278 142.392 161.473C150.769 169.667 156.088 180.854 156.088 193.351C156.088 205.611 151.199 216.844 143.1 225C160.557 219.826 177.008 210.308 190.8 196.817C204.592 183.325 214.085 167.462 219.373 150.385C211.058 158.172 199.668 162.859 187.258 162.859C161.709 162.859 140.973 142.574 140.973 117.581C140.973 96.0309 156.464 78.4513 177.102 73.9213C186.084 85.426 193.26 98.6764 198.591 113.886L229.998 0L230 0.000954578Z" fill="#879CE6"/>
</svg>
