<svg width="28" height="27" viewBox="0 0 28 27" fill="CurrentColor" xmlns="http://www.w3.org/2000/svg">
<path fill-rule="evenodd" clip-rule="evenodd" d="M13.9651 10.8351C12.6096 10.8351 11.5088 11.9359 11.5088 13.2914C11.5088 14.6469 12.6096 15.7477 13.9651 15.7477C15.3207 15.7477 16.4215 14.6469 16.4215 13.2914C16.4215 11.945 15.3207 10.8351 13.9651 10.8351Z" fill="CurrentColor"/>
<path fill-rule="evenodd" clip-rule="evenodd" d="M20.2424 0H7.56054C3.73051 0 0.600983 3.12953 0.600983 6.95956V19.6414C0.600983 23.4715 3.73051 26.601 7.56054 26.601H20.2424C24.0724 26.601 27.202 23.4715 27.202 19.6414V6.95956C27.202 3.12953 24.0724 0 20.2424 0ZM21.698 16.4118C21.698 18.9955 19.5965 21.097 17.0128 21.097H10.7901C8.20646 21.097 6.10495 18.9955 6.10495 16.4118V10.1892C6.10495 7.60548 8.20646 5.50396 10.7901 5.50396H17.0128C19.5965 5.50396 21.698 7.60548 21.698 10.1892V16.4118Z" fill="CurrentColor"/>
<path fill-rule="evenodd" clip-rule="evenodd" d="M17.0128 6.96869H10.7901C9.01611 6.96869 7.56961 8.41518 7.56961 10.1892V16.4119C7.56961 18.1859 9.01611 19.6324 10.7901 19.6324H17.0128C18.7868 19.6324 20.2333 18.1859 20.2333 16.4119V10.1892C20.2333 8.40609 18.7868 6.96869 17.0128 6.96869ZM13.9651 17.1397C11.8454 17.1397 10.126 15.4202 10.126 13.3005C10.126 11.1808 11.8454 9.46139 13.9651 9.46139C16.0848 9.46139 17.8043 11.1808 17.8043 13.3005C17.8043 15.4202 16.0757 17.1397 13.9651 17.1397ZM18.0226 10.1164C17.5222 10.1164 17.1038 9.70702 17.1038 9.19757C17.1038 8.6972 17.5131 8.27872 18.0226 8.27872C18.5321 8.27872 18.9414 8.68811 18.9414 9.19757C18.9414 9.70702 18.5321 10.1164 18.0226 10.1164Z" fill="CurrentColor"/>
</svg>
