<svg width="20" height="20" viewBox="0 0 20 20" fill="none" xmlns="http://www.w3.org/2000/svg">
<path d="M20 0H0V20H20V0Z" fill="#FFCA28"/>
<path d="M12.1429 16.6342L13.6154 15.6598C13.7308 16.0224 14.4616 16.8834 15.3846 16.8834C16.3077 16.8834 16.7363 16.3793 16.7363 16.045C16.7363 15.1341 15.7937 14.813 15.341 14.6588C15.2671 14.6336 15.2064 14.6129 15.1649 14.5949C15.1435 14.5856 15.1113 14.5732 15.0699 14.5574C14.5664 14.3651 12.7088 13.6554 12.7088 11.5981C12.7088 9.33214 14.8956 9.07157 15.3901 9.07157C15.7136 9.07157 17.2692 9.11121 18.0439 10.5671L16.6154 11.5641C16.3022 10.9296 15.7819 10.7201 15.4616 10.7201C14.6704 10.7201 14.5055 11.3001 14.5055 11.5641C14.5055 12.305 15.3651 12.6371 16.0909 12.9174C16.2809 12.9908 16.4616 13.0606 16.6154 13.1333C17.4066 13.5071 18.5714 14.119 18.5714 16.045C18.5714 17.0097 17.7623 18.5716 15.7253 18.5716C12.989 18.5716 12.2637 16.9288 12.1429 16.6342Z" fill="#3E3E3E"/>
<path d="M5 16.8276L6.53478 15.8538C6.655 16.2161 7.12236 16.8843 7.80036 16.8843C8.47843 16.8843 8.8255 16.1879 8.8255 15.8538V9.28586H10.713V15.8538C10.7436 16.7597 10.2411 18.5716 8.02371 18.5716C5.985 18.5716 5.13744 17.3599 5 16.8276Z" fill="#3E3E3E"/>
</svg>
