<svg width="160" height="160" viewBox="0 0 160 160" fill="none" xmlns="http://www.w3.org/2000/svg">
<path d="M107.479 125.001C110.702 130.263 114.895 134.131 122.311 134.131C128.541 134.131 132.521 131.017 132.521 126.715C132.521 121.559 128.432 119.733 121.575 116.734L117.816 115.121C106.966 110.499 99.7587 104.709 99.7587 92.4673C99.7587 81.1911 108.35 72.607 121.778 72.607C131.337 72.607 138.21 75.934 143.162 84.6451L131.454 92.1625C128.876 87.5403 126.095 85.7194 121.778 85.7194C117.374 85.7194 114.583 88.513 114.583 92.1625C114.583 96.673 117.376 98.4991 123.827 101.293L127.586 102.903C140.361 108.381 147.573 113.966 147.573 126.522C147.573 140.058 136.94 147.474 122.659 147.474C108.696 147.474 99.6749 140.82 95.2609 132.099L107.479 125.001ZM54.367 126.303C56.7289 130.494 58.8774 134.037 64.0432 134.037C68.9828 134.037 72.099 132.104 72.099 124.589V73.4654H87.1339V124.792C87.1339 140.361 78.0063 147.446 64.6832 147.446C52.6451 147.446 45.6736 141.217 42.1282 133.713L54.367 126.303Z" fill="white"/>
</svg>
