<svg width="27" height="27" viewBox="0 0 27 27" fill="CurrentColor" xmlns="http://www.w3.org/2000/svg">
<path fill-rule="evenodd" clip-rule="evenodd" d="M20.0453 0C23.8753 0 27.0048 3.12953 27.0048 6.95956V19.6414C27.0048 23.4715 23.8753 26.601 20.0453 26.601H7.36342C3.53339 26.601 0.40387 23.4715 0.40387 19.6414V6.95956C0.40387 3.12953 3.53339 0 7.36342 0H20.0453ZM19.2039 21H22.4039V14.2465C22.4039 11.3889 20.7335 10.0078 18.4703 10.0078C16.2079 10.0078 15.2039 11.7695 15.2039 11.7695V10.6H12.0039V21H15.2039V15.4008C15.2039 13.9008 15.9887 13.0078 17.3111 13.0078C18.5263 13.0078 19.2039 13.8648 19.2039 15.4008V21ZM6.40387 6.96797C6.40387 8.05517 7.27827 8.93672 8.35747 8.93672C9.43587 8.93672 10.3111 8.05517 10.3103 6.96797C10.3103 5.88157 9.43587 5 8.35747 5C7.27827 5 6.40387 5.88157 6.40387 6.96797ZM10.4039 21H6.40387V10.6H10.4039V21Z" fill="CurrentColor"/>
</svg>
