<svg width="161" height="161" viewBox="0 0 161 161" fill="none" xmlns="http://www.w3.org/2000/svg">
<path fill-rule="evenodd" clip-rule="evenodd" d="M127.995 71.6447C102.235 56.3497 59.1675 54.7398 34.615 62.3873C30.59 63.5948 26.565 61.1798 25.3575 57.5573C24.15 53.5323 26.565 49.5072 30.1875 48.2997C58.765 39.8472 105.858 41.4573 135.643 59.1673C139.265 61.1798 140.473 66.0098 138.46 69.6323C136.447 72.4498 131.618 73.6572 127.995 71.6447ZM127.19 94.1847C125.177 97.0022 121.555 98.2097 118.737 96.1972C97.0025 82.9147 63.9975 78.8898 38.64 86.9398C35.42 87.7448 31.7975 86.1348 30.9925 82.9148C30.1875 79.6948 31.7975 76.0723 35.0175 75.2673C64.4 66.4123 100.625 70.8397 125.58 86.1347C127.995 87.3422 129.202 91.3672 127.19 94.1847ZM117.53 116.322C115.92 118.737 113.103 119.542 110.688 117.932C91.77 106.26 68.0225 103.845 39.8475 110.285C37.03 111.09 34.615 109.077 33.81 106.662C33.005 103.845 35.0175 101.43 37.4325 100.625C68.0225 93.7823 94.5875 96.5998 115.518 109.48C118.335 110.687 118.737 113.907 117.53 116.322ZM80.5 -0.000244141C36.225 -0.000244141 0 36.2248 0 80.4998C0 124.775 36.225 161 80.5 161C124.775 161 161 124.775 161 80.4998C161 36.2248 125.178 -0.000244141 80.5 -0.000244141Z" fill="#00DA5A"/>
</svg>
