<svg width="40" height="50" viewBox="0 0 40 50" fill="currentColor" xmlns="http://www.w3.org/2000/svg">
<path d="M38.0645 27.4892H39.7849C39.7849 26.6234 40 25.7576 40 24.8918C40 21.645 39.1398 18.6147 37.8495 16.0173H36.129C36.9892 17.5325 37.4194 19.0476 37.8495 20.7792H27.957C24.086 20.7792 21.0753 17.7489 21.0753 13.8528V6.70996C25.8065 6.92641 30.1075 9.09091 33.3333 12.3377H35.4839C32.043 8.22511 26.8817 5.41126 21.0753 5.19481V0H18.9247V4.97835C13.1183 5.41126 7.95699 8.00866 4.51613 12.3377H6.66667C9.67742 9.09091 13.9785 6.92641 18.9247 6.70996V13.8528C18.9247 17.7489 15.914 20.7792 12.043 20.7792H2.15054C2.58064 19.0476 3.22581 17.5325 3.87097 16.0173H2.15054C0.860215 18.6147 0 21.645 0 24.8918C0 25.7576 0 26.6234 0.215054 27.4892H1.93548C1.72043 26.6234 1.72043 25.7576 1.72043 24.8918C1.72043 24.026 1.72043 23.3766 1.93548 22.5108H12.043C15.914 22.5108 19.1398 25.7576 19.1398 29.6537V43.29C11.6129 42.8571 5.37634 38.0952 3.01075 31.3853H1.07527C3.65591 38.961 10.5376 44.5887 18.9247 45.0216V50H20.8602V45.0216C29.2473 44.5887 36.129 38.961 38.7097 31.3853H36.9892C34.4086 38.0952 28.172 42.8571 20.8602 43.29V29.6537C20.8602 25.7576 24.086 22.5108 27.957 22.5108H38.0645C38.0645 23.1602 38.2796 24.026 38.2796 24.8918C38.2796 25.974 38.2796 26.8398 38.0645 27.4892Z" fill="currentColor"/>
</svg>
