<svg width="36" height="46" viewBox="0 0 36 46" fill="currentColor" xmlns="http://www.w3.org/2000/svg">
<path d="M33.5368 25.5336H35.8105C35.8105 24.7741 36 24.0147 36 23.2552C36 20.4071 35.2421 17.7488 34.1053 15.4704H31.4526C32.0211 16.6096 32.5895 17.7488 32.9684 19.0779H24.6316C21.6 19.0779 19.1368 16.6096 19.1368 13.5716V7.68554C22.9263 8.06529 26.3368 9.58428 28.8 12.0526H31.8316C28.8 8.25516 24.2526 5.78681 19.1368 5.40706V0.850098H16.6737V5.40706C11.5579 5.78681 7.01053 8.25516 3.97895 12.0526H7.01053C9.47368 9.58428 12.8842 7.87541 16.6737 7.68554V13.5716C16.6737 16.6096 14.2105 19.0779 11.1789 19.0779H2.84211C3.22105 17.7488 3.78947 16.6096 4.35789 15.4704H1.89474C0.757895 17.9387 0 20.4071 0 23.2552C0 24.0147 0 24.7741 0.189474 25.5336H2.46316C2.27368 24.7741 2.27368 24.0147 2.27368 23.2552C2.27368 22.6855 2.27368 22.3058 2.46316 21.7362H10.9895C14.2105 21.7362 16.6737 24.3944 16.6737 27.4324V38.8248C10.6105 38.2552 5.49474 34.2678 3.41053 28.7615H0.947368C3.22105 35.5969 9.28421 40.5336 16.6737 41.1033V45.6602H19.3263V41.1033C26.7158 40.5336 32.7789 35.5969 35.0526 28.7615H32.5895C30.5053 34.2678 25.3895 38.2552 19.3263 38.8248V27.4324C19.3263 24.2045 21.9789 21.7362 25.0105 21.7362H33.5368C33.5368 22.3058 33.7263 22.6855 33.7263 23.2552C33.7263 24.0147 33.7263 24.7741 33.5368 25.5336Z" fill="currentColor"/>
</svg>
