<svg width="157" height="156" viewBox="0 0 157 156" fill="CurrentColor" xmlns="http://www.w3.org/2000/svg">
<path d="M157 0.000661841L77.5327 21.3027C88.1491 24.8189 97.5058 29.5313 105.58 35.7174C102.494 49.8115 90.0643 60.3828 74.9541 60.3828C57.5145 60.3828 43.3603 46.3187 43.3603 28.9901C43.3603 20.5729 46.6304 12.8468 52.0651 7.20784C40.1484 10.7942 29.0803 17.233 19.6657 26.5873C10.2512 35.942 3.61036 47.1004 0.000998804 58.9406C5.69169 53.4478 13.5293 50.1317 22.084 50.1317C30.8041 50.1317 38.6094 53.7389 44.3281 59.4209C50.0461 65.1028 53.6771 72.8591 53.6771 81.524C53.6771 98.8523 39.5229 112.916 22.0833 112.916C13.5293 112.916 5.69102 109.6 0 104.107C3.60936 115.95 10.088 127.265 19.5036 136.62C28.9192 145.976 40.3069 152.414 52.2249 156C46.6974 150.346 43.3596 142.557 43.3596 134.057C43.3596 116.729 57.5135 102.665 74.9531 102.665C83.6732 102.665 91.4785 106.272 97.1978 111.954C102.916 117.636 106.547 125.392 106.547 134.057C106.547 142.557 103.21 150.345 97.6815 156C109.598 152.413 120.827 145.814 130.242 136.46C139.656 127.105 146.136 116.107 149.746 104.267C144.07 109.666 136.295 112.916 127.824 112.916C110.384 112.916 96.2297 98.8516 96.2297 81.523C96.2297 66.5814 106.803 54.3929 120.891 51.2521C127.023 59.2287 131.921 68.4156 135.56 78.9608L156.999 0L157 0.000661841Z" fill="CurrentColor"/>
</svg>
